<svg xmlns="http://www.w3.org/2000/svg" xmlns:xlink="http://www.w3.org/1999/xlink" width="100%" height="100%" viewBox="-71.2699966430664 14.37993049621582 912.9078979492188 1991.8035888671875" preserveAspectRatio="xMidYMid meet" zoomAndPan="disable" ><defs id="svgEditorDefs"><marker id="arrow8-6-left" markerHeight="6" markerUnits="strokeWidth" markerWidth="8" orient="auto" refX="3" refY="0" viewBox="0 -5 20 20"><path d="M 15 -5 L 0 0 L 15 5 z" fill="black"/></marker><marker id="arrow20-16-left" markerHeight="16" markerUnits="strokeWidth" markerWidth="20" orient="auto" refX="3" refY="0" viewBox="0 -5 20 20"><path d="M 15 -5 L 0 0 L 15 5 z" fill="black"/></marker><marker id="arrow20-16-right" markerHeight="16" markerUnits="strokeWidth" markerWidth="20" orient="auto" refX="-3" refY="0" viewBox="-15 -5 20 20"><path d="M -15 -5 L 0 0 L -15 5 z" fill="black"/></marker></defs><rect id="svgEditorBackground" x="-116.87940762347678" y="-2" width="991.0199541629692" height="1836.739990234375" style="stroke: none; fill: none;"/><line id="e1_line" x1="540" y1="60" x2="540" y2="2000" stroke="black" style="stroke-width: 1px; vector-effect: non-scaling-stroke; fill: none; stroke-dasharray: 2px, 2px;"/><text fill="black" style="font-family: Arial; font-size: 20px; text-anchor: middle; font-weight: normal;" x="550" y="40" id="e16_texte" dy="" dx="">DICOM Standard Interface</text><g id="e40_group" transform="matrix(1 0 0 1 87.669 1592.99)"><circle id="e41_circle" cx="658" cy="122" style="stroke-width: 1px; vector-effect: non-scaling-stroke;" stroke="black" r="80" fill="khaki" transform="matrix(1 0 0 1 -19.8779 1.59162e-12)"/><text fill="black" style="font-family: Arial; font-size: 20px; text-anchor: middle;" x="654" y="103" id="e42_texte" transform="matrix(1 0 0 1 -15.8701 1.53906)">Remote AE<tspan x="654" dy="1.25em" id="e43_tspan">Receives IAN</tspan><tspan x="654" dy="1.25em" id="e44_tspan">Create</tspan></text></g><line id="e85_line" x1="143" y1="1251" x2="280.464" y2="1248.46" stroke="black" style="stroke-width: 2px; fill: none; stroke-dasharray: 5px, 5px; vector-effect: non-scaling-stroke;" transform="matrix(1 0 0 1 11 280.888)"/><line id="e88_line" x1="632.8661339484659" y1="355.8663525078165" x2="463.865920325419" y2="355.8663525078165" stroke="black" style="stroke-width: 2px; fill: none; marker-end: url(&quot;#arrow15-12-right&quot;); marker-start: url(&quot;#arrow20-16-left&quot;); vector-effect: non-scaling-stroke;" transform="matrix(1 0 0 1 16 210)"/><line id="e91_line" x1="470" y1="154" x2="635" y2="154" stroke="black" style="stroke-width: 2px; fill: none; marker-end: url(&quot;#arrow15-12-right&quot;); marker-start: url(&quot;#arrow20-16-left&quot;); vector-effect: non-scaling-stroke;" transform="matrix(1 0 0 1 16 210)"/><line id="e92_line" x1="473.558" y1="542.558" x2="638.558" y2="542.558" stroke="black" style="fill: none; marker-end: url(&quot;#arrow15-12-right&quot;); marker-start: url(&quot;#arrow20-16-left&quot;); vector-effect: non-scaling-stroke;" transform="matrix(1 0 0 1 16 210)" stroke-width="2"/><line id="e93_line" x1="633.424" y1="737.424" x2="464.424" y2="737.424" stroke="black" style="stroke-width: 2px; fill: none; marker-start: url(&quot;#arrow20-16-left&quot;); vector-effect: non-scaling-stroke;" transform="matrix(1 0 0 1 16 210)"/><line id="e94_line" x1="472.116" y1="925.115" x2="637.116" y2="925.115" stroke="black" style="stroke-width: 2px; fill: none; marker-start: url(&quot;#arrow20-16-left&quot;); vector-effect: non-scaling-stroke;" transform="matrix(1, 0, 0, 1, 16, 210)"/><line id="e95_line" x1="471.674" y1="1322.67" x2="636.674" y2="1322.67" stroke="black" style="stroke-width: 2px; fill: none; marker-start: url(&quot;#arrow20-16-left&quot;); vector-effect: non-scaling-stroke;" transform="matrix(1 0 0 1 16 207.951)"/><line id="e96_line" x1="631.982" y1="1142.98" x2="462.982" y2="1142.98" stroke="black" style="stroke-width: 2px; fill: none; marker-end: url(&quot;#arrow15-12-right&quot;); marker-start: url(&quot;#arrow20-16-left&quot;); vector-effect: non-scaling-stroke;" transform="matrix(1 0 0 1 16 211.506)"/><line id="e97_line" x1="624.54" y1="1494.54" x2="455.539" y2="1494.54" stroke="black" style="stroke-width: 2px; fill: none; marker-end: url(&quot;#arrow15-12-right&quot;); marker-start: url(&quot;#arrow20-16-left&quot;); vector-effect: non-scaling-stroke;" transform="matrix(1 0 0 1 16 222)"/><line id="e99_line" x1="129" y1="1123" x2="131" y2="1183" stroke="black" style="stroke-width: 2px; fill: none; stroke-dasharray: 5px, 5px; vector-effect: non-scaling-stroke;" transform="matrix(1 0 0 1 -51.5 287)"/><line id="e100_line" x1="722.558" y1="160.558" x2="722" y2="199" stroke="black" style="stroke-width: 2px; fill: none; stroke-dasharray: 5px, 5px; vector-effect: non-scaling-stroke;" transform="matrix(1 0 0 1 11.126 283)"/><circle id="e79_circle" cx="141.99994585476816" cy="315.00001274394845" style="stroke-width: 1px; vector-effect: non-scaling-stroke;" stroke="black" r="70" fill="khaki" transform="matrix(1 0 0 1 -59.5 1215.62)"/><text fill="black" style="font-family: Arial; font-size: 20px; text-anchor: middle;" x="144" y="300" id="e80_texte" transform="matrix(1 0 0 1 -61.4922 1225.57)">Store<tspan x="144.001" dy="1.25em" y="">MPPS</tspan></text><circle id="e71_circle" cx="138" cy="316" style="stroke-width: 1px; vector-effect: non-scaling-stroke;" stroke="black" r="70" fill="khaki" transform="matrix(1 0 0 1 -59.5 1030.49)"/><text fill="black" style="font-family: Arial; font-size: 20px; text-anchor: middle;" x="134" y="298" id="e72_texte" transform="matrix(1 0 0 1 -55.4922 1043.44)">Forward<tspan x="133.999" dy="1.25em" y="">MPPS</tspan></text><circle id="e48_circle" cx="132" cy="428" style="stroke-width: 1px; vector-effect: non-scaling-stroke;" stroke="black" r="70" fill="khaki" transform="matrix(1 0 0 1 -45 524)"/><text fill="black" style="font-family: Arial; font-size: 20px; text-anchor: middle;" x="136" y="412" id="e49_texte" transform="matrix(1 0 0 1 -44.9844 535.359)">Load<tspan x="132" dy="1.25em" y="">Instance</tspan></text><circle id="e52_circle" cx="138" cy="432" style="stroke-width: 1px; vector-effect: non-scaling-stroke;" stroke="black" r="70" fill="khaki" transform="matrix(1 0 0 1 -55 140)"/><text fill="black" style="font-family: Arial; font-size: 20px; text-anchor: middle;" x="134" y="414" id="e53_texte" transform="matrix(1 0 0 1 -50.9922 152.5)">Export<tspan x="134" dy="1.25em" y="">Instances</tspan></text><circle id="e75_circle" cx="138" cy="496" style="stroke-width: 1px; vector-effect: non-scaling-stroke;" stroke="black" r="70" fill="khaki" transform="matrix(1 0 0 1 -59.5 1222)"/><text fill="black" style="font-family: Arial; font-size: 20px; text-anchor: middle;" x="134" y="478" id="e76_texte" transform="matrix(1 0 0 1 -55.4922 1235.36)">Create<tspan x="134" dy="1.25em">IAN</tspan></text><circle id="e58_circle" cx="805" cy="136" style="stroke-width: 1px; vector-effect: non-scaling-stroke;" stroke="black" r="80" fill="khaki" transform="matrix(1 0 0 1 -71.5951 428.694)"/><text fill="black" style="font-family: Arial; font-size: 20px; text-anchor: middle;" x="655" y="116" id="e59_texte" transform="matrix(1 0 0 1 78.4205 419.053)" dy="" dx="">Remote AE<tspan x="659" dy="1.25em" id="e60_tspan" y="">Receives</tspan><tspan x="659" dy="1.25em" y="">Retrieve</tspan><tspan x="659" dy="1.25em" y="">Command</tspan></text><circle id="e51_circle" cx="658" cy="122" style="stroke-width: 1px; vector-effect: non-scaling-stroke;" stroke="black" r="80" fill="khaki" transform="matrix(1 0 0 1 75.4049 632.274)"/><text fill="black" style="font-family: Arial; font-size: 20px; text-anchor: middle;" x="654" y="103" id="e52_texte" transform="matrix(1 0 0 1 79.4205 621.313)">Remote AE<tspan x="654" dy="1.25em">Issues</tspan><tspan x="654" dy="1.25em">Retrieve</tspan><tspan x="654" dy="1.25em">Command</tspan></text><circle id="e3_circle" cx="656" cy="324" style="stroke-width: 1px; vector-effect: non-scaling-stroke;" stroke="black" r="80" fill="khaki" transform="matrix(1 0 0 1 77.4047 1206.62)"/><text fill="black" style="font-family: Arial; font-size: 20px; text-anchor: middle;" x="652" y="305" id="e3_texte" transform="matrix(1 0 0 1 81.4127 1208.07)">Remote AE<tspan x="651.999" dy="1.25em" y="">Sends MPPS</tspan><tspan x="651.999" dy="1.25em" y="">Create/Update</tspan></text><circle id="e46_circle" cx="658" cy="122" style="stroke-width: 1px; vector-effect: non-scaling-stroke;" stroke="black" r="80" fill="khaki" transform="matrix(1, 0, 0, 1, 75.4049, 1012.3)"/><text fill="black" style="font-family: Arial; font-size: 20px; text-anchor: middle;" x="654" y="103" id="e47_texte" transform="matrix(1, 0, 0, 1, 79.4205, 1013.84)">Remote AE<tspan x="654" dy="1.25em">Issues Query</tspan><tspan x="654" dy="1.25em">Command</tspan></text><circle id="e30_circle" cx="800" cy="120" style="stroke-width: 1px; vector-effect: non-scaling-stroke;" stroke="black" r="80" fill="khaki" transform="matrix(1 0 0 1 -66.5951 245)"/><text fill="black" style="font-family: Arial; font-size: 20px; text-anchor: middle;" x="654" y="103" id="e31_texte" transform="matrix(1 0 0 1 79.4205 244.859)">Remote AE<tspan x="654" dy="1.25em" id="e32_tspan">Sends</tspan><tspan x="654" dy="1.25em">Instances</tspan></text><rect x="289" y="-383" style="stroke-width: 1px; vector-effect: non-scaling-stroke;" stroke="black" id="e7_rectangle" width="200" height="700" fill="khaki" transform="matrix(1 0 0 1 -3.68465 880.186)" ry="0" rx="0"/><text fill="black" style="font-family: Arial; font-size: 20px; text-anchor: middle;" x="383.292" y="-236.945" id="e8_texte" transform="matrix(1 0 0 1 3.61214 1066.55)">Query/Retrieve<tspan x="383.292" dy="1.25em">Application</tspan><tspan x="383.292" dy="1.25em">Entity</tspan></text><rect x="280" y="-300" style="stroke-width: 1px; vector-effect: non-scaling-stroke;" stroke="black" id="e12_rectangle" width="200" height="700" fill="khaki" ry="0" rx="0" transform="matrix(1, 0, 0, 1, 5.31536, 1573.26)"/><text fill="black" style="font-family: Arial; font-size: 20px; text-anchor: middle;" x="383.292" y="-416.945" id="e13_texte" transform="matrix(1, 0, 0, 1, 7.35739, 2022.85)">Workflow<tspan x="383.291" dy="1.25em" y="">Application</tspan><tspan x="383.291" dy="1.25em" y="">Entity</tspan></text><circle id="e35_circle" cx="658" cy="122" style="stroke-width: 1px; vector-effect: non-scaling-stroke;" stroke="black" r="80" fill="khaki" transform="matrix(1 0 0 1 75.4049 826.401)"/><text fill="black" style="font-family: Arial; font-size: 20px; text-anchor: middle;" x="654" y="103" id="e37_texte" transform="matrix(1 0 0 1 79.4205 827.94)">Remote AE<tspan x="654" dy="1.25em" id="e38_tspan">Receives</tspan><tspan x="654" dy="1.25em">Instances</tspan></text><circle id="e25_circle" cx="658" cy="-58" style="stroke-width: 1px; vector-effect: non-scaling-stroke;" stroke="black" r="80" fill="khaki" transform="matrix(1 0 0 1 75.4049 1404.49)"/><text fill="black" style="font-family: Arial; font-size: 20px; text-anchor: middle;" x="654" y="-77" id="e26_texte" transform="matrix(1 0 0 1 79.4205 1405.94)">Remote AE<tspan x="653.999" dy="1.25em" id="e27_tspan" y="">Receives MPPS</tspan><tspan x="653.999" dy="1.25em" id="e28_tspan" y="">Create/Update</tspan></text><circle id="e5_circle" cx="127.99999600279716" cy="120.99999938931279" style="stroke-width: 1px; vector-effect: non-scaling-stroke;" stroke="black" r="70" fill="khaki" transform="matrix(1 0 0 1 -57 249)"/><text fill="black" style="font-family: Arial; font-size: 20px; text-anchor: middle;" x="140" y="108" id="e7_texte" transform="matrix(1 0 0 1 -58.9844 259.359)">Store<tspan x="140.001" dy="1.25em" y="">Instance</tspan></text><rect x="280" y="80" style="stroke-width: 1px; vector-effect: non-scaling-stroke;" stroke="black" id="e35_rectangle" width="200" height="350" fill="khaki" ry="0" rx="0" transform="matrix(1 0 0 1 5.31541 0)"/><text fill="black" style="font-family: Arial; font-size: 20px; text-anchor: middle;" x="382.586" y="200" id="e36_texte" dy="" dx="" transform="matrix(1 0 0 1 1.42109e-14 37.4531)">Storage<tspan x="382.586" dy="1.25em">Application</tspan><tspan x="382.586" dy="1.25em">Entity</tspan></text><circle id="e103_circle" cx="794" cy="-76" style="stroke-width: 1px; vector-effect: non-scaling-stroke;" stroke="black" r="80" fill="khaki" transform="matrix(1 0 0 1 -60.5951 245)"/><text fill="black" style="font-family: Arial; font-size: 20px; text-anchor: middle;" x="648" y="-93" id="e104_texte" transform="matrix(1 0 0 1 85.4205 231.5)">Remote AE<tspan x="648" dy="1.25em">Requests</tspan><tspan x="648" dy="1.25em">Storage</tspan><tspan x="648" dy="1.25em">Commitment</tspan></text><circle id="e108_circle" cx="132" cy="-77" style="stroke-width: 1px; vector-effect: non-scaling-stroke;" stroke="black" r="70" fill="khaki" transform="matrix(1 0 0 1 -57 249)"/><text fill="black" style="font-family: Arial; font-size: 20px; text-anchor: middle;" x="134" y="-92" id="e109_texte" transform="matrix(1 0 0 1 -58.9844 246)">Verify<tspan x="134" dy="1.25em" y="">Instance</tspan><tspan x="134" dy="1.25em" y="">Checksum</tspan></text><line id="e113_line" x1="656.429698162957" y1="139.08913331104205" x2="487.42972868053516" y2="139.08913331104205" stroke="black" style="stroke-width: 2px; fill: none; marker-end: url(&quot;#arrow20-16-right&quot;); vector-effect: non-scaling-stroke;"/><line id="e115_line" x1="655.2113460387502" y1="200.21131697454652" x2="486.2115596617971" y2="200.21131697454652" stroke="black" style="stroke-width: 2px; fill: none; marker-start: url(&quot;#arrow20-16-left&quot;); vector-effect: non-scaling-stroke;"/><circle id="e117_circle" cx="126" cy="230" style="stroke-width: 1px; vector-effect: non-scaling-stroke;" stroke="black" r="70" fill="khaki" transform="matrix(1 0 0 1 -45 524)"/><text fill="black" style="font-family: Arial; font-size: 20px; text-anchor: middle;" x="130" y="214" id="e118_texte" transform="matrix(1 0 0 1 -44.9844 522)">Forward<tspan x="130" dy="1.25em">Retrieve</tspan><tspan x="130" dy="1.25em">Command</tspan></text><polyline stroke="black" stroke-width="2.956" id="e120_polyline" style="fill: none;" points="74 1704" transform="matrix(1 0 0 1 -66 16)"/><line id="e122_line" x1="127.5" y1="157" x2="127.5" y2="217" stroke="black" style="stroke-width: 2px; fill: none; stroke-dasharray: 5px, 5px; vector-effect: non-scaling-stroke;" transform="matrix(1 0 0 1 -51.5 287)"/><line id="e123_line" x1="142.501" y1="1076.5" x2="279.964" y2="1073.96" stroke="black" style="stroke-width: 2px; fill: none; stroke-dasharray: 5px, 5px; vector-effect: non-scaling-stroke;" transform="matrix(1 0 0 1 11 271.253)"/><line id="e124_line" x1="138.001" y1="1420" x2="275.465" y2="1417.46" stroke="black" style="stroke-width: 2px; fill: none; stroke-dasharray: 5px, 5px; vector-effect: non-scaling-stroke;" transform="matrix(1 0 0 1 11 295)"/><line id="e125_line" x1="140.50053482706517" y1="854.5003310487375" x2="277.96437149698704" y2="851.9602919862375" stroke="black" style="stroke-width: 2px; fill: none; stroke-dasharray: 5px, 5px; vector-effect: non-scaling-stroke;" transform="matrix(1, 0, 0, 1, 11, 283)"/><line id="e126_line" x1="140.00108061864512" y1="670.000839922396" x2="277.46476470067637" y2="667.460800859896" stroke="black" style="stroke-width: 2px; fill: none; stroke-dasharray: 5px, 5px; vector-effect: non-scaling-stroke;" transform="matrix(1 0 0 1 11 283)"/><line id="e127_line" x1="139.50162376660455" y1="475.5011979705771" x2="276.9651400019561" y2="472.9611589080771" stroke="black" style="stroke-width: 2px; fill: none; stroke-dasharray: 5px, 5px; vector-effect: non-scaling-stroke;" transform="matrix(1 0 0 1 11 283)"/><line id="e128_line" x1="141.00216427094438" y1="289.0011862829939" x2="278.46555843598344" y2="286.4611472204939" stroke="black" style="stroke-width: 2px; fill: none; stroke-dasharray: 5px, 5px; vector-effect: non-scaling-stroke;" transform="matrix(1 0 0 1 11 283)"/><line id="e129_line" x1="134.50271113966437" y1="-109.4983024326886" x2="271.96589168165656" y2="-112.0383414951886" stroke="black" style="stroke-width: 2px; fill: none; stroke-dasharray: 5px, 5px; vector-effect: non-scaling-stroke;" transform="matrix(1 0 0 1 11 283)"/><line id="e130_line" x1="132.00326309969068" y1="88.00220340312575" x2="269.46624527742506" y2="85.46216434062575" stroke="black" style="stroke-width: 2px; fill: none; stroke-dasharray: 5px, 5px; vector-effect: non-scaling-stroke;" transform="matrix(1 0 0 1 11 283)"/><path stroke="black" style="fill: none; stroke-width: 2px; vector-effect: non-scaling-stroke; stroke-dasharray: 5px, 5px;" id="e133_arc3" d="M 18 412 c -110 44 -98 1244 6 1264"/><line id="e134_line" x1="131.5" y1="1297" x2="131.5" y2="1357" stroke="black" style="stroke-width: 2px; fill: none; stroke-dasharray: 5px, 5px; vector-effect: non-scaling-stroke;" transform="matrix(1 0 0 1 -51.5 299)"/><circle id="e43_circle" cx="138" cy="123" style="stroke-width: 1px; vector-effect: non-scaling-stroke;" stroke="black" r="70" fill="khaki" transform="matrix(1, 0, 0, 1, -57, 1015)"/><text fill="black" style="font-family: Arial; font-size: 20px; text-anchor: middle;" x="140" y="108" id="e44_texte" transform="matrix(1, 0, 0, 1, -58.9922, 1037.86)">Query DB</text><circle id="e37_circle" cx="655.816" cy="884.215" style="stroke-width: 1px; vector-effect: non-scaling-stroke;" stroke="black" r="80" fill="khaki" transform="matrix(1, 0, 0, 1, 75.4049, 1012.3)"/><line id="e38_line" x1="469.932" y1="1687.33" x2="634.932" y2="1687.33" stroke="black" style="stroke-width: 2px; fill: none; marker-start: url(&quot;#arrow20-16-left&quot;); vector-effect: non-scaling-stroke;" transform="matrix(1, 0, 0, 1, 16, 210)"/><line id="e39_line" x1="138.317" y1="1616.71" x2="275.78" y2="1614.17" stroke="black" style="stroke-width: 2px; fill: none; stroke-dasharray: 5px, 5px; vector-effect: non-scaling-stroke;" transform="matrix(1, 0, 0, 1, 11, 283)"/><circle id="e40_circle" cx="135.816" cy="885.215" style="stroke-width: 1px; vector-effect: non-scaling-stroke;" stroke="black" r="70" fill="khaki" transform="matrix(1, 0, 0, 1, -57, 1015)"/><text fill="black" style="font-family: Arial; font-size: 20px; text-anchor: middle;" x="651.816" y="865.215" id="e41_texte" transform="matrix(1, 0, 0, 1, 79.4205, 1013.84)">Remote AE<tspan x="651.816" dy="1.25em">Requests MWL</tspan><tspan x="651.816" dy="1.25em">Query</tspan></text><text fill="black" style="font-family: Arial; font-size: 20px; text-anchor: middle;" x="137.816" y="870.215" id="e46_texte" transform="matrix(1, 0, 0, 1, -58.9922, 1037.86)">Query DB</text></svg>