<?xml version="1.0" encoding="UTF-8" standalone="yes"?><svg xmlns="http://www.w3.org/2000/svg" xmlns:xlink="http://www.w3.org/1999/xlink" height="247px" style="width:499px;height:247px;" version="1.1" viewBox="0 0 499 247" width="499px"><defs><filter height="300%" id="f1" width="300%" x="-1" y="-1"><feGaussianBlur result="blurOut" stdDeviation="2.0"/><feColorMatrix in="blurOut" result="blurOut2" type="matrix" values="0 0 0 0 0 0 0 0 0 0 0 0 0 0 0 0 0 0 .4 0"/><feOffset dx="4.0" dy="4.0" in="blurOut2" result="blurOut3"/><feBlend in="SourceGraphic" in2="blurOut3" mode="normal"/></filter></defs><g><polygon fill="#FFFFFF" filter="url(#f1)" points="22,79,32,69,289,69,289,162,279,172,22,172,22,79" style="stroke: #000000; stroke-width: 2.0;"/><line style="stroke: #000000; stroke-width: 2.0;" x1="279" x2="288" y1="79" y2="70"/><line style="stroke: #000000; stroke-width: 2.0;" x1="22" x2="279" y1="79" y2="79"/><line style="stroke: #000000; stroke-width: 2.0;" x1="279" x2="279" y1="79" y2="172"/><text fill="#000000" font-family="sans-serif" font-size="14" font-weight="bold" lengthAdjust="spacingAndGlyphs" textLength="81" x="111" y="94.9951">WildFly AS</text><rect fill="#FEFECE" filter="url(#f1)" height="46.2969" style="stroke: #A80036; stroke-width: 1.5;" width="90" x="183" y="110"/><rect fill="#FEFECE" height="10" style="stroke: #A80036; stroke-width: 1.5;" width="15" x="253" y="115"/><rect fill="#FEFECE" height="2" style="stroke: #A80036; stroke-width: 1.5;" width="4" x="251" y="117"/><rect fill="#FEFECE" height="2" style="stroke: #A80036; stroke-width: 1.5;" width="4" x="251" y="121"/><text fill="#000000" font-family="sans-serif" font-size="14" lengthAdjust="spacingAndGlyphs" textLength="50" x="198" y="142.9951">Archive</text><rect fill="#FEFECE" filter="url(#f1)" height="46.2969" style="stroke: #A80036; stroke-width: 1.5;" width="109" x="38.75" y="110"/><rect fill="#FEFECE" height="10" style="stroke: #A80036; stroke-width: 1.5;" width="15" x="127.75" y="115"/><rect fill="#FEFECE" height="2" style="stroke: #A80036; stroke-width: 1.5;" width="4" x="125.75" y="117"/><rect fill="#FEFECE" height="2" style="stroke: #A80036; stroke-width: 1.5;" width="4" x="125.75" y="121"/><text fill="#000000" font-family="sans-serif" font-size="14" lengthAdjust="spacingAndGlyphs" textLength="69" x="53.75" y="142.9951">Keycloack</text><path d="M65.5,18.5 C65.5,8.5 93.5,8.5 93.5,8.5 C93.5,8.5 121.5,8.5 121.5,18.5 L121.5,39.7969 C121.5,49.7969 93.5,49.7969 93.5,49.7969 C93.5,49.7969 65.5,49.7969 65.5,39.7969 L65.5,18.5 " fill="#FEFECE" filter="url(#f1)" style="stroke: #000000; stroke-width: 1.5;"/><path d="M65.5,18.5 C65.5,28.5 93.5,28.5 93.5,28.5 C93.5,28.5 121.5,28.5 121.5,18.5 " fill="none" style="stroke: #000000; stroke-width: 1.5;"/><text fill="#000000" font-family="sans-serif" font-size="14" lengthAdjust="spacingAndGlyphs" textLength="36" x="75.5" y="41.4951">LDAP</text><path d="M156,18.5 C156,8.5 199,8.5 199,8.5 C199,8.5 242,8.5 242,18.5 L242,39.7969 C242,49.7969 199,49.7969 199,49.7969 C199,49.7969 156,49.7969 156,39.7969 L156,18.5 " fill="#FEFECE" filter="url(#f1)" style="stroke: #000000; stroke-width: 1.5;"/><path d="M156,18.5 C156,28.5 199,28.5 199,28.5 C199,28.5 242,28.5 242,18.5 " fill="none" style="stroke: #000000; stroke-width: 1.5;"/><text fill="#000000" font-family="sans-serif" font-size="14" lengthAdjust="spacingAndGlyphs" textLength="66" x="166" y="41.4951">Database</text><rect fill="#FEFECE" filter="url(#f1)" height="36.2969" rx="35" ry="35" style="stroke: #000000; stroke-width: 1.5;" width="74" x="277" y="11"/><text fill="#000000" font-family="sans-serif" font-size="14" lengthAdjust="spacingAndGlyphs" textLength="54" x="287" y="33.9951">Storage</text><rect fill="#FEFECE" filter="url(#f1)" height="36.2969" rx="35" ry="35" style="stroke: #000000; stroke-width: 1.5;" width="106" x="386.5" y="11"/><text fill="#000000" font-family="sans-serif" font-size="14" lengthAdjust="spacingAndGlyphs" textLength="86" x="396.5" y="33.9951">Elastic Stack</text><ellipse cx="86.25" cy="225" fill="#FEFECE" filter="url(#f1)" rx="8" ry="8" style="stroke: #A80036; stroke-width: 2.0;"/><text fill="#000000" font-family="sans-serif" font-size="14" lengthAdjust="spacingAndGlyphs" textLength="37" x="67.75" y="246.9951">HTTP</text><ellipse cx="158.25" cy="225" fill="#FEFECE" filter="url(#f1)" rx="8" ry="8" style="stroke: #A80036; stroke-width: 2.0;"/><text fill="#000000" font-family="sans-serif" font-size="14" lengthAdjust="spacingAndGlyphs" textLength="37" x="139.75" y="246.9951">HTTP</text><ellipse cx="439.25" cy="125" fill="#FEFECE" filter="url(#f1)" rx="8" ry="8" style="stroke: #A80036; stroke-width: 2.0;"/><text fill="#000000" font-family="sans-serif" font-size="14" lengthAdjust="spacingAndGlyphs" textLength="37" x="420.75" y="146.9951">HTTP</text><ellipse cx="235.25" cy="225" fill="#FEFECE" filter="url(#f1)" rx="8" ry="8" style="stroke: #A80036; stroke-width: 2.0;"/><text fill="#000000" font-family="sans-serif" font-size="14" lengthAdjust="spacingAndGlyphs" textLength="47" x="211.75" y="246.9951">DICOM</text><ellipse cx="315.5" cy="225" fill="#FEFECE" filter="url(#f1)" rx="8" ry="8" style="stroke: #A80036; stroke-width: 2.0;"/><text fill="#000000" font-family="sans-serif" font-size="14" lengthAdjust="spacingAndGlyphs" textLength="42" x="294.5" y="246.9951">HL7v2</text><path d="M93,54.712 C93,71.554 93,93.66 93,109.915 " fill="none" style="stroke: #A80036; stroke-width: 1.0;"/><polygon fill="#A80036" points="93,49.667,89,58.667,93,54.667,97,58.667,93,49.667" style="stroke: #A80036; stroke-width: 1.0;"/><path d="M91.4116,156.2377 C90.1127,174.422 88.3072,199.6996 87.146,215.9561 " fill="none" style="stroke: #A80036; stroke-width: 1.0;"/><path d="M125.201,44.396 C129.499,46.292 133.853,48.201 138,50 C149.511,54.993 153.779,53.723 164,61 C182.926,74.475 200.292,94.446 212.145,109.778 " fill="none" style="stroke: #A80036; stroke-width: 1.0;"/><polygon fill="#A80036" points="120.571,42.348,127.1835,49.647,125.1436,44.3707,130.4198,42.3309,120.571,42.348" style="stroke: #A80036; stroke-width: 1.0;"/><path d="M206.026,54.712 C210.814,71.554 217.1,93.66 221.721,109.915 " fill="none" style="stroke: #A80036; stroke-width: 1.0;"/><polygon fill="#A80036" points="204.591,49.667,203.2074,59.4182,205.9597,54.476,210.9019,57.2283,204.591,49.667" style="stroke: #A80036; stroke-width: 1.0;"/><path d="M295.86,51.515 C281.376,68.693 261.162,92.668 246.568,109.977 " fill="none" style="stroke: #A80036; stroke-width: 1.0;"/><polygon fill="#A80036" points="299.411,47.303,290.5508,51.6038,296.1874,51.1251,296.6661,56.7616,299.411,47.303" style="stroke: #A80036; stroke-width: 1.0;"/><path d="M152.325,133 C162.527,133 172.729,133 182.931,133 " fill="none" style="stroke: #A80036; stroke-width: 1.0;"/><polygon fill="#A80036" points="147.316,133,156.316,137,152.316,133,156.316,129,147.316,133" style="stroke: #A80036; stroke-width: 1.0;"/><path d="M229.588,156.2377 C230.887,174.422 232.693,199.6996 233.854,215.9561 " fill="none" style="stroke: #A80036; stroke-width: 1.0;"/><path d="M247.742,156.2377 C263.885,174.422 286.325,199.6996 300.757,215.9561 " fill="none" style="stroke: #A80036; stroke-width: 1.0;"/><path d="M212.116,156.2377 C199.127,174.422 181.072,199.6996 169.46,215.9561 " fill="none" style="stroke: #A80036; stroke-width: 1.0;"/><path d="M398.965,49.354 C363.163,66.661 310.73,92.007 273.383,110.061 " fill="none" style="stroke: #A80036; stroke-width: 1.0;"/><polygon fill="#A80036" points="403.683,47.073,393.8392,47.3882,399.1813,49.2489,397.3206,54.5909,403.683,47.073" style="stroke: #A80036; stroke-width: 1.0;"/><path d="M439,47.303 C439,66.514 439,97.272 439,115.959 " fill="none" style="stroke: #A80036; stroke-width: 1.0;"/></g></svg>