<?xml version="1.0" encoding="UTF-8" standalone="yes"?><svg xmlns="http://www.w3.org/2000/svg" xmlns:xlink="http://www.w3.org/1999/xlink" height="578px" style="width:968px;height:578px;" version="1.1" viewBox="0 0 968 578" width="968px"><defs><filter height="300%" id="f1" width="300%" x="-1" y="-1"><feGaussianBlur result="blurOut" stdDeviation="2.0"/><feColorMatrix in="blurOut" result="blurOut2" type="matrix" values="0 0 0 0 0 0 0 0 0 0 0 0 0 0 0 0 0 0 .4 0"/><feOffset dx="4.0" dy="4.0" in="blurOut2" result="blurOut3"/><feBlend in="SourceGraphic" in2="blurOut3" mode="normal"/></filter></defs><g><polygon fill="#FFFFFF" filter="url(#f1)" points="22,36,32,26,238,26,238,115,228,125,22,125,22,36" style="stroke: #000000; stroke-width: 2.0;"/><line style="stroke: #000000; stroke-width: 2.0;" x1="228" x2="237" y1="36" y2="27"/><line style="stroke: #000000; stroke-width: 2.0;" x1="22" x2="228" y1="36" y2="36"/><line style="stroke: #000000; stroke-width: 2.0;" x1="228" x2="228" y1="36" y2="125"/><text fill="#000000" font-family="sans-serif" font-size="14" font-style="italic" lengthAdjust="spacingAndGlyphs" textLength="139" x="56.5" y="51.9951">«Docker Container»</text><polygon fill="#FFFFFF" filter="url(#f1)" points="75,361,85,351,291,351,291,517,281,527,75,527,75,361" style="stroke: #000000; stroke-width: 2.0;"/><line style="stroke: #000000; stroke-width: 2.0;" x1="281" x2="290" y1="361" y2="352"/><line style="stroke: #000000; stroke-width: 2.0;" x1="75" x2="281" y1="361" y2="361"/><line style="stroke: #000000; stroke-width: 2.0;" x1="281" x2="281" y1="361" y2="527"/><text fill="#000000" font-family="sans-serif" font-size="14" font-style="italic" lengthAdjust="spacingAndGlyphs" textLength="139" x="109.5" y="376.9951">«Docker Container»</text><polygon fill="#FFFFFF" filter="url(#f1)" points="106,410,116,400,264,400,264,493,254,503,106,503,106,410" style="stroke: #000000; stroke-width: 2.0;"/><line style="stroke: #000000; stroke-width: 2.0;" x1="254" x2="263" y1="410" y2="401"/><line style="stroke: #000000; stroke-width: 2.0;" x1="106" x2="254" y1="410" y2="410"/><line style="stroke: #000000; stroke-width: 2.0;" x1="254" x2="254" y1="410" y2="503"/><text fill="#000000" font-family="sans-serif" font-size="14" font-weight="bold" lengthAdjust="spacingAndGlyphs" textLength="81" x="140.5" y="425.9951">WildFly AS</text><polygon fill="#FFFFFF" filter="url(#f1)" points="300,161,310,151,516,151,516,317,506,327,300,327,300,161" style="stroke: #000000; stroke-width: 2.0;"/><line style="stroke: #000000; stroke-width: 2.0;" x1="506" x2="515" y1="161" y2="152"/><line style="stroke: #000000; stroke-width: 2.0;" x1="300" x2="506" y1="161" y2="161"/><line style="stroke: #000000; stroke-width: 2.0;" x1="506" x2="506" y1="161" y2="327"/><text fill="#000000" font-family="sans-serif" font-size="14" font-style="italic" lengthAdjust="spacingAndGlyphs" textLength="139" x="334.5" y="176.9951">«Docker Container»</text><polygon fill="#FFFFFF" filter="url(#f1)" points="329,210,339,200,487,200,487,293,477,303,329,303,329,210" style="stroke: #000000; stroke-width: 2.0;"/><line style="stroke: #000000; stroke-width: 2.0;" x1="477" x2="486" y1="210" y2="201"/><line style="stroke: #000000; stroke-width: 2.0;" x1="329" x2="477" y1="210" y2="210"/><line style="stroke: #000000; stroke-width: 2.0;" x1="477" x2="477" y1="210" y2="303"/><text fill="#000000" font-family="sans-serif" font-size="14" font-weight="bold" lengthAdjust="spacingAndGlyphs" textLength="81" x="363.5" y="225.9951">WildFly AS</text><polygon fill="#FFFFFF" filter="url(#f1)" points="262,36,272,26,478,26,478,115,468,125,262,125,262,36" style="stroke: #000000; stroke-width: 2.0;"/><line style="stroke: #000000; stroke-width: 2.0;" x1="468" x2="477" y1="36" y2="27"/><line style="stroke: #000000; stroke-width: 2.0;" x1="262" x2="468" y1="36" y2="36"/><line style="stroke: #000000; stroke-width: 2.0;" x1="468" x2="468" y1="36" y2="125"/><text fill="#000000" font-family="sans-serif" font-size="14" font-style="italic" lengthAdjust="spacingAndGlyphs" textLength="139" x="296.5" y="51.9951">«Docker Container»</text><polygon fill="#FFFFFF" filter="url(#f1)" points="502,39,512,29,718,29,718,112,708,122,502,122,502,39" style="stroke: #000000; stroke-width: 2.0;"/><line style="stroke: #000000; stroke-width: 2.0;" x1="708" x2="717" y1="39" y2="30"/><line style="stroke: #000000; stroke-width: 2.0;" x1="502" x2="708" y1="39" y2="39"/><line style="stroke: #000000; stroke-width: 2.0;" x1="708" x2="708" y1="39" y2="122"/><text fill="#000000" font-family="sans-serif" font-size="14" font-style="italic" lengthAdjust="spacingAndGlyphs" textLength="139" x="536.5" y="54.9951">«Docker Container»</text><polygon fill="#FFFFFF" filter="url(#f1)" points="742,34,752,24,958,24,958,117,948,127,742,127,742,34" style="stroke: #000000; stroke-width: 2.0;"/><line style="stroke: #000000; stroke-width: 2.0;" x1="948" x2="957" y1="34" y2="25"/><line style="stroke: #000000; stroke-width: 2.0;" x1="742" x2="948" y1="34" y2="34"/><line style="stroke: #000000; stroke-width: 2.0;" x1="948" x2="948" y1="34" y2="127"/><text fill="#000000" font-family="sans-serif" font-size="14" font-style="italic" lengthAdjust="spacingAndGlyphs" textLength="139" x="776.5" y="49.9951">«Docker Container»</text><polygon fill="#FFFFFF" filter="url(#f1)" points="702,215,712,205,918,205,918,288,908,298,702,298,702,215" style="stroke: #000000; stroke-width: 2.0;"/><line style="stroke: #000000; stroke-width: 2.0;" x1="908" x2="917" y1="215" y2="206"/><line style="stroke: #000000; stroke-width: 2.0;" x1="702" x2="908" y1="215" y2="215"/><line style="stroke: #000000; stroke-width: 2.0;" x1="908" x2="908" y1="215" y2="298"/><text fill="#000000" font-family="sans-serif" font-size="14" font-style="italic" lengthAdjust="spacingAndGlyphs" textLength="139" x="736.5" y="230.9951">«Docker Container»</text><polygon fill="#FFFFFF" filter="url(#f1)" points="747,410,757,400,963,400,963,493,953,503,747,503,747,410" style="stroke: #000000; stroke-width: 2.0;"/><line style="stroke: #000000; stroke-width: 2.0;" x1="953" x2="962" y1="410" y2="401"/><line style="stroke: #000000; stroke-width: 2.0;" x1="747" x2="953" y1="410" y2="410"/><line style="stroke: #000000; stroke-width: 2.0;" x1="953" x2="953" y1="410" y2="503"/><text fill="#000000" font-family="sans-serif" font-size="14" font-style="italic" lengthAdjust="spacingAndGlyphs" textLength="139" x="781.5" y="425.9951">«Docker Container»</text><path d="M166.5,77.5 C166.5,67.5 194.5,67.5 194.5,67.5 C194.5,67.5 222.5,67.5 222.5,77.5 L222.5,98.7969 C222.5,108.7969 194.5,108.7969 194.5,108.7969 C194.5,108.7969 166.5,108.7969 166.5,98.7969 L166.5,77.5 " fill="#FEFECE" filter="url(#f1)" style="stroke: #000000; stroke-width: 1.5;"/><path d="M166.5,77.5 C166.5,87.5 194.5,87.5 194.5,87.5 C194.5,87.5 222.5,87.5 222.5,77.5 " fill="none" style="stroke: #000000; stroke-width: 1.5;"/><text fill="#000000" font-family="sans-serif" font-size="14" lengthAdjust="spacingAndGlyphs" textLength="36" x="176.5" y="100.4951">LDAP</text><rect fill="#FEFECE" filter="url(#f1)" height="46.2969" style="stroke: #A80036; stroke-width: 1.5;" width="101" x="145.75" y="441"/><rect fill="#FEFECE" height="10" style="stroke: #A80036; stroke-width: 1.5;" width="15" x="226.75" y="446"/><rect fill="#FEFECE" height="2" style="stroke: #A80036; stroke-width: 1.5;" width="4" x="224.75" y="448"/><rect fill="#FEFECE" height="2" style="stroke: #A80036; stroke-width: 1.5;" width="4" x="224.75" y="452"/><text fill="#000000" font-family="sans-serif" font-size="14" lengthAdjust="spacingAndGlyphs" textLength="61" x="160.75" y="473.9951">Keycloak</text><rect fill="#FEFECE" filter="url(#f1)" height="46.2969" style="stroke: #A80036; stroke-width: 1.5;" width="90" x="363" y="241"/><rect fill="#FEFECE" height="10" style="stroke: #A80036; stroke-width: 1.5;" width="15" x="433" y="246"/><rect fill="#FEFECE" height="2" style="stroke: #A80036; stroke-width: 1.5;" width="4" x="431" y="248"/><rect fill="#FEFECE" height="2" style="stroke: #A80036; stroke-width: 1.5;" width="4" x="431" y="252"/><text fill="#000000" font-family="sans-serif" font-size="14" lengthAdjust="spacingAndGlyphs" textLength="50" x="378" y="273.9951">Archive</text><path d="M365,77.5 C365,67.5 408,67.5 408,67.5 C408,67.5 451,67.5 451,77.5 L451,98.7969 C451,108.7969 408,108.7969 408,108.7969 C408,108.7969 365,108.7969 365,98.7969 L365,77.5 " fill="#FEFECE" filter="url(#f1)" style="stroke: #000000; stroke-width: 1.5;"/><path d="M365,77.5 C365,87.5 408,87.5 408,87.5 C408,87.5 451,87.5 451,77.5 " fill="none" style="stroke: #000000; stroke-width: 1.5;"/><text fill="#000000" font-family="sans-serif" font-size="14" lengthAdjust="spacingAndGlyphs" textLength="66" x="375" y="100.4951">Database</text><rect fill="#FEFECE" filter="url(#f1)" height="36.2969" rx="35" ry="35" style="stroke: #000000; stroke-width: 1.5;" width="74" x="518" y="70"/><text fill="#000000" font-family="sans-serif" font-size="14" lengthAdjust="spacingAndGlyphs" textLength="54" x="528" y="92.9951">Storage</text><rect fill="#FEFECE" filter="url(#f1)" height="46.2969" style="stroke: #A80036; stroke-width: 1.5;" width="103" x="758.75" y="65"/><rect fill="#FEFECE" height="10" style="stroke: #A80036; stroke-width: 1.5;" width="15" x="841.75" y="70"/><rect fill="#FEFECE" height="2" style="stroke: #A80036; stroke-width: 1.5;" width="4" x="839.75" y="72"/><rect fill="#FEFECE" height="2" style="stroke: #A80036; stroke-width: 1.5;" width="4" x="839.75" y="76"/><text fill="#000000" font-family="sans-serif" font-size="14" lengthAdjust="spacingAndGlyphs" textLength="63" x="773.75" y="97.9951">Logstash</text><rect fill="#FEFECE" filter="url(#f1)" height="36.2969" rx="35" ry="35" style="stroke: #000000; stroke-width: 1.5;" width="111" x="754.75" y="246"/><text fill="#000000" font-family="sans-serif" font-size="14" lengthAdjust="spacingAndGlyphs" textLength="91" x="764.75" y="268.9951">Elasticsearch</text><rect fill="#FEFECE" filter="url(#f1)" height="46.2969" style="stroke: #A80036; stroke-width: 1.5;" width="86" x="767" y="441"/><rect fill="#FEFECE" height="10" style="stroke: #A80036; stroke-width: 1.5;" width="15" x="833" y="446"/><rect fill="#FEFECE" height="2" style="stroke: #A80036; stroke-width: 1.5;" width="4" x="831" y="448"/><rect fill="#FEFECE" height="2" style="stroke: #A80036; stroke-width: 1.5;" width="4" x="831" y="452"/><text fill="#000000" font-family="sans-serif" font-size="14" lengthAdjust="spacingAndGlyphs" textLength="46" x="782" y="473.9951">Kibana</text><ellipse cx="196.25" cy="556" fill="#FEFECE" filter="url(#f1)" rx="8" ry="8" style="stroke: #A80036; stroke-width: 2.0;"/><text fill="#000000" font-family="sans-serif" font-size="14" lengthAdjust="spacingAndGlyphs" textLength="37" x="177.75" y="577.9951">HTTP</text><ellipse cx="331.25" cy="456" fill="#FEFECE" filter="url(#f1)" rx="8" ry="8" style="stroke: #A80036; stroke-width: 2.0;"/><text fill="#000000" font-family="sans-serif" font-size="14" lengthAdjust="spacingAndGlyphs" textLength="37" x="312.75" y="477.9951">HTTP</text><ellipse cx="810.25" cy="556" fill="#FEFECE" filter="url(#f1)" rx="8" ry="8" style="stroke: #A80036; stroke-width: 2.0;"/><text fill="#000000" font-family="sans-serif" font-size="14" lengthAdjust="spacingAndGlyphs" textLength="37" x="791.75" y="577.9951">HTTP</text><ellipse cx="408.25" cy="456" fill="#FEFECE" filter="url(#f1)" rx="8" ry="8" style="stroke: #A80036; stroke-width: 2.0;"/><text fill="#000000" font-family="sans-serif" font-size="14" lengthAdjust="spacingAndGlyphs" textLength="47" x="384.75" y="477.9951">DICOM</text><ellipse cx="488.5" cy="456" fill="#FEFECE" filter="url(#f1)" rx="8" ry="8" style="stroke: #A80036; stroke-width: 2.0;"/><text fill="#000000" font-family="sans-serif" font-size="14" lengthAdjust="spacingAndGlyphs" textLength="42" x="467.5" y="477.9951">HL7v2</text><path d="M754.369,113.079 C674.086,147.828 527.279,211.372 453.243,243.417 " fill="none" style="stroke: #A80036; stroke-width: 1.0;"/><polygon fill="#A80036" points="759.086,111.037,749.2376,110.9404,754.4972,113.0228,752.4149,118.2824,759.086,111.037" style="stroke: #A80036; stroke-width: 1.0;"/><path d="M810,287.58 C810,325.847 810,402.971 810,440.907 " fill="none" style="stroke: #A80036; stroke-width: 1.0;"/><polygon fill="#A80036" points="810,282.225,806,291.225,810,287.225,814,291.225,810,282.225" style="stroke: #A80036; stroke-width: 1.0;"/><path d="M370.725,287.032 C347.723,301.498 318.27,321.642 295,343 C263.588,371.831 233.27,410.737 214.642,436.329 " fill="none" style="stroke: #A80036; stroke-width: 1.0;"/><polygon fill="#A80036" points="211.528,440.632,220.0453,435.6867,214.4597,436.5817,213.5647,430.996,211.528,440.632" style="stroke: #A80036; stroke-width: 1.0;"/><path d="M194.132,113.697 C194.5,182.441 195.531,375.253 195.881,440.837 " fill="none" style="stroke: #A80036; stroke-width: 1.0;"/><polygon fill="#A80036" points="194.105,108.581,190.1539,117.6026,194.1321,113.5809,198.1538,117.5592,194.105,108.581" style="stroke: #A80036; stroke-width: 1.0;"/><path d="M222.019,111.782 C263.351,145.388 340.161,207.841 380.937,240.996 " fill="none" style="stroke: #A80036; stroke-width: 1.0;"/><polygon fill="#A80036" points="218.133,108.622,222.5932,117.403,222.0127,111.776,227.6397,111.1955,218.133,108.622" style="stroke: #A80036; stroke-width: 1.0;"/><path d="M408,113.849 C408,147.895 408,208.509 408,240.996 " fill="none" style="stroke: #A80036; stroke-width: 1.0;"/><polygon fill="#A80036" points="408,108.622,404,117.622,408,113.622,412,117.622,408,108.622" style="stroke: #A80036; stroke-width: 1.0;"/><path d="M537.368,109.87 C509.468,142.896 455.38,206.917 426.78,240.771 " fill="none" style="stroke: #A80036; stroke-width: 1.0;"/><polygon fill="#A80036" points="540.637,106.001,531.7735,110.295,537.4104,109.8206,537.8848,115.4575,540.637,106.001" style="stroke: #A80036; stroke-width: 1.0;"/><path d="M810,111.037 C810,144.37 810,207.26 810,240.73 " fill="none" style="stroke: #A80036; stroke-width: 1.0;"/><polygon fill="#A80036" points="810,245.84,814,236.84,810,240.84,806,236.84,810,245.84" style="stroke: #A80036; stroke-width: 1.0;"/><path d="M196,487.2377 C196,505.422 196,530.6996 196,546.9561 " fill="none" style="stroke: #A80036; stroke-width: 1.0;"/><path d="M408,287.328 C408,327.581 408,411.405 408,446.738 " fill="none" style="stroke: #A80036; stroke-width: 1.0;"/><path d="M420.874,287.04 C429.523,302.401 440.796,323.547 449,343 C464.237,379.13 477.233,423.403 483.673,446.768 " fill="none" style="stroke: #A80036; stroke-width: 1.0;"/><path d="M394.795,287.315 C386.109,302.622 374.924,323.597 367,343 C352.281,379.044 340.545,423.352 334.817,446.744 " fill="none" style="stroke: #A80036; stroke-width: 1.0;"/><path d="M810,487.2377 C810,505.422 810,530.6996 810,546.9561 " fill="none" style="stroke: #A80036; stroke-width: 1.0;"/></g></svg>