<?xml version="1.0" encoding="UTF-8" standalone="yes"?><svg xmlns="http://www.w3.org/2000/svg" xmlns:xlink="http://www.w3.org/1999/xlink" height="526px" style="width:918px;height:526px;" version="1.1" viewBox="0 0 918 526" width="918px"><defs><filter height="300%" id="f1" width="300%" x="-1" y="-1"><feGaussianBlur result="blurOut" stdDeviation="2.0"/><feColorMatrix in="blurOut" result="blurOut2" type="matrix" values="0 0 0 0 0 0 0 0 0 0 0 0 0 0 0 0 0 0 .4 0"/><feOffset dx="4.0" dy="4.0" in="blurOut2" result="blurOut3"/><feBlend in="SourceGraphic" in2="blurOut3" mode="normal"/></filter></defs><g><polygon fill="#FFFFFF" filter="url(#f1)" points="97.8324,141,107.8324,131,331.832,131,331.832,394,321.832,404,97.8324,404,97.8324,141" style="stroke: #000000; stroke-width: 2.0;"/><line style="stroke: #000000; stroke-width: 2.0;" x1="321.832" x2="330.832" y1="141" y2="132"/><line style="stroke: #000000; stroke-width: 2.0;" x1="97.8324" x2="321.832" y1="141" y2="141"/><line style="stroke: #000000; stroke-width: 2.0;" x1="321.832" x2="321.832" y1="141" y2="404"/><text fill="#000000" font-family="sans-serif" font-size="14" font-weight="bold" lengthAdjust="spacingAndGlyphs" textLength="51" x="185.3322" y="156.9951">Host B</text><polygon fill="#FFFFFF" filter="url(#f1)" points="123.832,287,133.832,277,281.832,277,281.832,370,271.832,380,123.832,380,123.832,287" style="stroke: #000000; stroke-width: 2.0;"/><line style="stroke: #000000; stroke-width: 2.0;" x1="271.832" x2="280.832" y1="287" y2="278"/><line style="stroke: #000000; stroke-width: 2.0;" x1="123.832" x2="271.832" y1="287" y2="287"/><line style="stroke: #000000; stroke-width: 2.0;" x1="271.832" x2="271.832" y1="287" y2="380"/><text fill="#000000" font-family="sans-serif" font-size="14" font-weight="bold" lengthAdjust="spacingAndGlyphs" textLength="81" x="158.332" y="302.9951">WildFly AS</text><polygon fill="#FFFFFF" filter="url(#f1)" points="679.832,141,689.832,131,913.832,131,913.832,394,903.832,404,679.832,404,679.832,141" style="stroke: #000000; stroke-width: 2.0;"/><line style="stroke: #000000; stroke-width: 2.0;" x1="903.832" x2="912.832" y1="141" y2="132"/><line style="stroke: #000000; stroke-width: 2.0;" x1="679.832" x2="903.832" y1="141" y2="141"/><line style="stroke: #000000; stroke-width: 2.0;" x1="903.832" x2="903.832" y1="141" y2="404"/><text fill="#000000" font-family="sans-serif" font-size="14" font-weight="bold" lengthAdjust="spacingAndGlyphs" textLength="52" x="766.832" y="156.9951">Host C</text><polygon fill="#FFFFFF" filter="url(#f1)" points="703.832,287,713.832,277,861.832,277,861.832,370,851.832,380,703.832,380,703.832,287" style="stroke: #000000; stroke-width: 2.0;"/><line style="stroke: #000000; stroke-width: 2.0;" x1="851.832" x2="860.832" y1="287" y2="278"/><line style="stroke: #000000; stroke-width: 2.0;" x1="703.832" x2="851.832" y1="287" y2="287"/><line style="stroke: #000000; stroke-width: 2.0;" x1="851.832" x2="851.832" y1="287" y2="380"/><text fill="#000000" font-family="sans-serif" font-size="14" font-weight="bold" lengthAdjust="spacingAndGlyphs" textLength="81" x="738.332" y="302.9951">WildFly AS</text><polygon fill="#FFFFFF" filter="url(#f1)" points="355.832,34,365.832,24,564.832,24,564.832,243,554.832,253,355.832,253,355.832,34" style="stroke: #000000; stroke-width: 2.0;"/><line style="stroke: #000000; stroke-width: 2.0;" x1="554.832" x2="563.832" y1="34" y2="25"/><line style="stroke: #000000; stroke-width: 2.0;" x1="355.832" x2="554.832" y1="34" y2="34"/><line style="stroke: #000000; stroke-width: 2.0;" x1="554.832" x2="554.832" y1="34" y2="253"/><text fill="#000000" font-family="sans-serif" font-size="14" font-weight="bold" lengthAdjust="spacingAndGlyphs" textLength="52" x="430.332" y="49.9951">Host A</text><polygon fill="#FFFFFF" filter="url(#f1)" points="379.832,136,389.832,126,537.832,126,537.832,219,527.832,229,379.832,229,379.832,136" style="stroke: #000000; stroke-width: 2.0;"/><line style="stroke: #000000; stroke-width: 2.0;" x1="527.832" x2="536.832" y1="136" y2="127"/><line style="stroke: #000000; stroke-width: 2.0;" x1="379.832" x2="527.832" y1="136" y2="136"/><line style="stroke: #000000; stroke-width: 2.0;" x1="527.832" x2="527.832" y1="136" y2="229"/><text fill="#000000" font-family="sans-serif" font-size="14" font-weight="bold" lengthAdjust="spacingAndGlyphs" textLength="81" x="414.332" y="151.9951">WildFly AS</text><polygon fill="#FFFFFF" filter="url(#f1)" points="301.832,438,311.832,428,439.832,428,439.832,511,429.832,521,301.832,521,301.832,438" style="stroke: #000000; stroke-width: 2.0;"/><line style="stroke: #000000; stroke-width: 2.0;" x1="429.832" x2="438.832" y1="438" y2="429"/><line style="stroke: #000000; stroke-width: 2.0;" x1="301.832" x2="429.832" y1="438" y2="438"/><line style="stroke: #000000; stroke-width: 2.0;" x1="429.832" x2="429.832" y1="438" y2="521"/><text fill="#000000" font-family="sans-serif" font-size="14" font-weight="bold" lengthAdjust="spacingAndGlyphs" textLength="52" x="340.832" y="453.9951">Host D</text><rect fill="#FEFECE" filter="url(#f1)" height="36.2969" rx="35" ry="35" style="stroke: #000000; stroke-width: 1.5;" width="83" x="114.582" y="172"/><text fill="#000000" font-family="sans-serif" font-size="14" lengthAdjust="spacingAndGlyphs" textLength="63" x="124.582" y="194.9951">Storage1</text><rect fill="#FEFECE" filter="url(#f1)" height="36.2969" rx="35" ry="35" style="stroke: #000000; stroke-width: 1.5;" width="83" x="232.582" y="172"/><text fill="#000000" font-family="sans-serif" font-size="14" lengthAdjust="spacingAndGlyphs" textLength="63" x="242.582" y="194.9951">Storage2</text><rect fill="#FEFECE" filter="url(#f1)" height="46.2969" style="stroke: #A80036; stroke-width: 1.5;" width="90" x="142.832" y="318"/><rect fill="#FEFECE" height="10" style="stroke: #A80036; stroke-width: 1.5;" width="15" x="212.832" y="323"/><rect fill="#FEFECE" height="2" style="stroke: #A80036; stroke-width: 1.5;" width="4" x="210.832" y="325"/><rect fill="#FEFECE" height="2" style="stroke: #A80036; stroke-width: 1.5;" width="4" x="210.832" y="329"/><text fill="#000000" font-family="sans-serif" font-size="14" lengthAdjust="spacingAndGlyphs" textLength="50" x="157.832" y="350.9951">Archive</text><rect fill="#FEFECE" filter="url(#f1)" height="36.2969" rx="35" ry="35" style="stroke: #000000; stroke-width: 1.5;" width="83" x="696.582" y="172"/><text fill="#000000" font-family="sans-serif" font-size="14" lengthAdjust="spacingAndGlyphs" textLength="63" x="706.582" y="194.9951">Storage3</text><rect fill="#FEFECE" filter="url(#f1)" height="36.2969" rx="35" ry="35" style="stroke: #000000; stroke-width: 1.5;" width="83" x="814.582" y="172"/><text fill="#000000" font-family="sans-serif" font-size="14" lengthAdjust="spacingAndGlyphs" textLength="63" x="824.582" y="194.9951">Storage4</text><rect fill="#FEFECE" filter="url(#f1)" height="46.2969" style="stroke: #A80036; stroke-width: 1.5;" width="90" x="719.832" y="318"/><rect fill="#FEFECE" height="10" style="stroke: #A80036; stroke-width: 1.5;" width="15" x="789.832" y="323"/><rect fill="#FEFECE" height="2" style="stroke: #A80036; stroke-width: 1.5;" width="4" x="787.832" y="325"/><rect fill="#FEFECE" height="2" style="stroke: #A80036; stroke-width: 1.5;" width="4" x="787.832" y="329"/><text fill="#000000" font-family="sans-serif" font-size="14" lengthAdjust="spacingAndGlyphs" textLength="50" x="734.832" y="350.9951">Archive</text><path d="M372.332,75.5 C372.332,65.5 400.332,65.5 400.332,65.5 C400.332,65.5 428.332,65.5 428.332,75.5 L428.332,96.7969 C428.332,106.7969 400.332,106.7969 400.332,106.7969 C400.332,106.7969 372.332,106.7969 372.332,96.7969 L372.332,75.5 " fill="#FEFECE" filter="url(#f1)" style="stroke: #000000; stroke-width: 1.5;"/><path d="M372.332,75.5 C372.332,85.5 400.332,85.5 400.332,85.5 C400.332,85.5 428.332,85.5 428.332,75.5 " fill="none" style="stroke: #000000; stroke-width: 1.5;"/><text fill="#000000" font-family="sans-serif" font-size="14" lengthAdjust="spacingAndGlyphs" textLength="36" x="382.332" y="98.4951">LDAP</text><path d="M462.832,75.5 C462.832,65.5 505.832,65.5 505.832,65.5 C505.832,65.5 548.832,65.5 548.832,75.5 L548.832,96.7969 C548.832,106.7969 505.832,106.7969 505.832,106.7969 C505.832,106.7969 462.832,106.7969 462.832,96.7969 L462.832,75.5 " fill="#FEFECE" filter="url(#f1)" style="stroke: #000000; stroke-width: 1.5;"/><path d="M462.832,75.5 C462.832,85.5 505.832,85.5 505.832,85.5 C505.832,85.5 548.832,85.5 548.832,75.5 " fill="none" style="stroke: #000000; stroke-width: 1.5;"/><text fill="#000000" font-family="sans-serif" font-size="14" lengthAdjust="spacingAndGlyphs" textLength="66" x="472.832" y="98.4951">Database</text><rect fill="#FEFECE" filter="url(#f1)" height="46.2969" style="stroke: #A80036; stroke-width: 1.5;" width="101" x="396.582" y="167"/><rect fill="#FEFECE" height="10" style="stroke: #A80036; stroke-width: 1.5;" width="15" x="477.582" y="172"/><rect fill="#FEFECE" height="2" style="stroke: #A80036; stroke-width: 1.5;" width="4" x="475.582" y="174"/><rect fill="#FEFECE" height="2" style="stroke: #A80036; stroke-width: 1.5;" width="4" x="475.582" y="178"/><text fill="#000000" font-family="sans-serif" font-size="14" lengthAdjust="spacingAndGlyphs" textLength="61" x="411.582" y="199.9951">Keycloak</text><rect fill="#FEFECE" filter="url(#f1)" height="36.2969" rx="35" ry="35" style="stroke: #000000; stroke-width: 1.5;" width="106" x="318.332" y="469"/><text fill="#000000" font-family="sans-serif" font-size="14" lengthAdjust="spacingAndGlyphs" textLength="86" x="328.332" y="491.9951">Elastic Stack</text><ellipse cx="263.082" cy="479" fill="#FEFECE" filter="url(#f1)" rx="8" ry="8" style="stroke: #A80036; stroke-width: 2.0;"/><text fill="#000000" font-family="sans-serif" font-size="14" lengthAdjust="spacingAndGlyphs" textLength="37" x="244.582" y="500.9951">HTTP</text><ellipse cx="688.082" cy="479" fill="#FEFECE" filter="url(#f1)" rx="8" ry="8" style="stroke: #A80036; stroke-width: 2.0;"/><text fill="#000000" font-family="sans-serif" font-size="14" lengthAdjust="spacingAndGlyphs" textLength="37" x="669.582" y="500.9951">HTTP</text><ellipse cx="447.082" cy="333" fill="#FEFECE" filter="url(#f1)" rx="8" ry="8" style="stroke: #A80036; stroke-width: 2.0;"/><text fill="#000000" font-family="sans-serif" font-size="14" lengthAdjust="spacingAndGlyphs" textLength="37" x="428.582" y="354.9951">HTTP</text><ellipse cx="371.082" cy="333" fill="#FEFECE" filter="url(#f1)" rx="8" ry="8" style="stroke: #A80036; stroke-width: 2.0;"/><text fill="#000000" font-family="sans-serif" font-size="14" lengthAdjust="spacingAndGlyphs" textLength="37" x="352.582" y="354.9951">HTTP</text><ellipse cx="108.0824" cy="479" fill="#FEFECE" filter="url(#f1)" rx="8" ry="8" style="stroke: #A80036; stroke-width: 2.0;"/><text fill="#000000" font-family="sans-serif" font-size="14" lengthAdjust="spacingAndGlyphs" textLength="47" x="84.5824" y="500.9951">DICOM</text><ellipse cx="765.082" cy="479" fill="#FEFECE" filter="url(#f1)" rx="8" ry="8" style="stroke: #A80036; stroke-width: 2.0;"/><text fill="#000000" font-family="sans-serif" font-size="14" lengthAdjust="spacingAndGlyphs" textLength="47" x="741.582" y="500.9951">DICOM</text><ellipse cx="188.332" cy="479" fill="#FEFECE" filter="url(#f1)" rx="8" ry="8" style="stroke: #A80036; stroke-width: 2.0;"/><text fill="#000000" font-family="sans-serif" font-size="14" lengthAdjust="spacingAndGlyphs" textLength="42" x="167.332" y="500.9951">HL7v2</text><ellipse cx="845.332" cy="479" fill="#FEFECE" filter="url(#f1)" rx="8" ry="8" style="stroke: #A80036; stroke-width: 2.0;"/><text fill="#000000" font-family="sans-serif" font-size="14" lengthAdjust="spacingAndGlyphs" textLength="42" x="824.332" y="500.9951">HL7v2</text><path d="M411.019,111.278 C418.804,128.173 429.102,150.52 436.656,166.915 " fill="none" style="stroke: #A80036; stroke-width: 1.0;"/><polygon fill="#A80036" points="408.894,106.667,409.0292,116.5149,410.9872,111.2078,416.2944,113.1658,408.894,106.667" style="stroke: #A80036; stroke-width: 1.0;"/><path d="M446.832,213.307 C446.832,243.669 446.832,297.276 446.832,323.967 " fill="none" style="stroke: #A80036; stroke-width: 1.0;"/><path d="M370.832,358.239 C370.832,385.601 370.832,440.6467 370.832,468.704 " fill="none" style="stroke: #A80036; stroke-width: 1.0;"/><path d="M366.876,87.314 C281.291,88.47 57.0623,93.802 34.8324,118 C-8.1646,164.804 1.771,206.721 34.8324,261 C58.0811,299.169 106.355,319.7 142.496,330.176 " fill="none" style="stroke: #A80036; stroke-width: 1.0;"/><polygon fill="#A80036" points="372.067,87.247,363.0152,83.3656,367.0674,87.3127,363.1203,91.3649,372.067,87.247" style="stroke: #A80036; stroke-width: 1.0;"/><path d="M432.314,102.619 C436.467,104.263 440.708,105.778 444.832,107 C474.606,115.825 488.369,100.225 513.832,118 C573.548,159.684 540.386,211.533 593.832,261 C629.833,294.32 682.353,315.716 719.675,327.721 " fill="none" style="stroke: #A80036; stroke-width: 1.0;"/><polygon fill="#A80036" points="427.492,100.638,434.2973,107.7575,432.117,102.5377,437.3369,100.3575,427.492,100.638" style="stroke: #A80036; stroke-width: 1.0;"/><path d="M407.263,215.69 C385.205,229.3 357.156,246.356 331.832,261 C297.644,280.77 258.3,302.271 229.386,317.844 " fill="none" style="stroke: #A80036; stroke-width: 1.0;"/><polygon fill="#A80036" points="411.592,213.016,401.8333,214.3452,407.3388,215.6448,406.0393,221.1503,411.592,213.016" style="stroke: #A80036; stroke-width: 1.0;"/><path d="M477.878,216.241 C496.719,230.702 521.715,248.419 545.832,261 C603.17,290.911 674.382,314.293 719.729,327.623 " fill="none" style="stroke: #A80036; stroke-width: 1.0;"/><polygon fill="#A80036" points="473.711,213.019,478.3842,221.6886,477.6665,216.0774,483.2777,215.3597,473.711,213.019" style="stroke: #A80036; stroke-width: 1.0;"/><path d="M457.553,104.001 C452.957,105.186 448.333,106.219 443.832,107 C424.884,110.29 111.214,104.187 97.8324,118 C53.6116,163.649 71.6156,203.104 97.8324,261 C108.553,284.674 130.261,304.064 149.672,317.709 " fill="none" style="stroke: #A80036; stroke-width: 1.0;"/><polygon fill="#A80036" points="462.523,102.659,452.7912,101.1451,457.6961,103.9632,454.8779,108.8681,462.523,102.659" style="stroke: #A80036; stroke-width: 1.0;"/><path d="M554.007,96.138 C569.22,100.785 585.311,107.717 597.832,118 C654.449,164.498 634.262,203.634 679.832,261 C696.624,282.138 719.126,302.792 736.759,317.678 " fill="none" style="stroke: #A80036; stroke-width: 1.0;"/><polygon fill="#A80036" points="548.887,94.648,556.411,101.0033,553.6879,96.045,558.6462,93.3219,548.887,94.648" style="stroke: #A80036; stroke-width: 1.0;"/><path d="M159.503,208.092 C164.997,233.672 175.411,282.164 181.967,312.689 " fill="none" style="stroke: #A80036; stroke-width: 1.0;"/><polygon fill="#A80036" points="183.064,317.799,185.0848,308.1597,182.014,312.9105,177.2632,309.8397,183.064,317.799" style="stroke: #A80036; stroke-width: 1.0;"/><path d="M263.967,208.092 C249.081,233.884 220.751,282.967 203.161,313.442 " fill="none" style="stroke: #A80036; stroke-width: 1.0;"/><polygon fill="#A80036" points="200.646,317.799,208.6079,312.0018,203.1444,313.4679,201.6782,308.0044,200.646,317.799" style="stroke: #A80036; stroke-width: 1.0;"/><path d="M740.93,208.092 C745.565,233.672 754.352,282.164 759.883,312.689 " fill="none" style="stroke: #A80036; stroke-width: 1.0;"/><polygon fill="#A80036" points="760.809,317.799,763.1404,308.2301,759.9176,312.8791,755.2685,309.6563,760.809,317.799" style="stroke: #A80036; stroke-width: 1.0;"/><path d="M845.394,208.092 C829.642,233.884 799.665,282.967 781.052,313.442 " fill="none" style="stroke: #A80036; stroke-width: 1.0;"/><polygon fill="#A80036" points="778.391,317.799,786.4953,312.2025,780.9968,313.5317,779.6676,308.0332,778.391,317.799" style="stroke: #A80036; stroke-width: 1.0;"/><path d="M221.31,364.218 C243.502,379.312 272.994,400.08 297.832,420 C315.742,434.363 334.962,451.8307 349.183,465.1874 " fill="none" style="stroke: #A80036; stroke-width: 1.0;"/><polygon fill="#A80036" points="353.056,468.8396,349.2537,459.7543,349.4188,465.4088,343.7643,465.5739,353.056,468.8396" style="stroke: #A80036; stroke-width: 1.0;"/><path d="M719.636,358.519 C645.959,385.446 500.406,438.643 422.656,467.0593 " fill="none" style="stroke: #A80036; stroke-width: 1.0;"/><polygon fill="#A80036" points="417.634,468.8947,427.4601,469.5634,422.3304,467.1789,424.7148,462.0491,417.634,468.8947" style="stroke: #A80036; stroke-width: 1.0;"/><path d="M175.508,364.184 C159.291,393.375 131.17,443.992 116.819,469.8234 " fill="none" style="stroke: #A80036; stroke-width: 1.0;"/><path d="M187.832,364.184 C187.832,393.375 187.832,443.992 187.832,469.8234 " fill="none" style="stroke: #A80036; stroke-width: 1.0;"/><path d="M199.387,364.184 C214.59,393.375 240.953,443.992 254.407,469.8234 " fill="none" style="stroke: #A80036; stroke-width: 1.0;"/><path d="M764.832,364.184 C764.832,393.375 764.832,443.992 764.832,469.8234 " fill="none" style="stroke: #A80036; stroke-width: 1.0;"/><path d="M777.157,364.184 C793.374,393.375 821.495,443.992 835.845,469.8234 " fill="none" style="stroke: #A80036; stroke-width: 1.0;"/><path d="M752.97,364.184 C737.361,393.375 710.295,443.992 696.482,469.8234 " fill="none" style="stroke: #A80036; stroke-width: 1.0;"/></g></svg>