<?xml version="1.0" encoding="UTF-8" standalone="no"?><svg xmlns="http://www.w3.org/2000/svg" xmlns:xlink="http://www.w3.org/1999/xlink" contentScriptType="application/ecmascript" contentStyleType="text/css" height="613px" preserveAspectRatio="none" style="width:529px;height:613px;" version="1.1" viewBox="0 0 529 613" width="529px" zoomAndPan="magnify"><defs><filter height="300%" id="f1btdza6yf6ztk" width="300%" x="-1" y="-1"><feGaussianBlur result="blurOut" stdDeviation="2.0"/><feColorMatrix in="blurOut" result="blurOut2" type="matrix" values="0 0 0 0 0 0 0 0 0 0 0 0 0 0 0 0 0 0 .4 0"/><feOffset dx="4.0" dy="4.0" in="blurOut2" result="blurOut3"/><feBlend in="SourceGraphic" in2="blurOut3" mode="normal"/></filter></defs><g><rect fill="#FFFFFF" filter="url(#f1btdza6yf6ztk)" height="190.9297" style="stroke: #000000; stroke-width: 2.0;" width="494.5" x="13" y="332.8203"/><line style="stroke: #A80036; stroke-width: 1.0; stroke-dasharray: 5.0,5.0;" x1="88" x2="88" y1="70.8906" y2="540.75"/><line style="stroke: #A80036; stroke-width: 1.0; stroke-dasharray: 5.0,5.0;" x1="365" x2="365" y1="70.8906" y2="540.75"/><rect fill="#FEFECE" filter="url(#f1btdza6yf6ztk)" height="62.8906" style="stroke: #A80036; stroke-width: 1.5;" width="127" x="23" y="3"/><text fill="#000000" font-family="sans-serif" font-size="14" lengthAdjust="spacingAndGlyphs" textLength="113" x="30" y="22.9951">Remote Storage</text><text fill="#000000" font-family="sans-serif" font-size="14" lengthAdjust="spacingAndGlyphs" textLength="89" x="42" y="39.292">Commitment</text><text fill="#000000" font-family="sans-serif" font-size="14" lengthAdjust="spacingAndGlyphs" textLength="51" x="61" y="55.5889">SCU AE</text><rect fill="#FEFECE" filter="url(#f1btdza6yf6ztk)" height="62.8906" style="stroke: #A80036; stroke-width: 1.5;" width="127" x="23" y="539.75"/><text fill="#000000" font-family="sans-serif" font-size="14" lengthAdjust="spacingAndGlyphs" textLength="113" x="30" y="559.7451">Remote Storage</text><text fill="#000000" font-family="sans-serif" font-size="14" lengthAdjust="spacingAndGlyphs" textLength="89" x="42" y="576.042">Commitment</text><text fill="#000000" font-family="sans-serif" font-size="14" lengthAdjust="spacingAndGlyphs" textLength="51" x="61" y="592.3389">SCU AE</text><rect fill="#FEFECE" filter="url(#f1btdza6yf6ztk)" height="62.8906" style="stroke: #A80036; stroke-width: 1.5;" width="89" x="319" y="3"/><text fill="#000000" font-family="sans-serif" font-size="14" lengthAdjust="spacingAndGlyphs" textLength="54" x="336.5" y="22.9951">Storage</text><text fill="#000000" font-family="sans-serif" font-size="14" lengthAdjust="spacingAndGlyphs" textLength="75" x="326" y="39.292">Application</text><text fill="#000000" font-family="sans-serif" font-size="14" lengthAdjust="spacingAndGlyphs" textLength="38" x="344.5" y="55.5889">Entity</text><rect fill="#FEFECE" filter="url(#f1btdza6yf6ztk)" height="62.8906" style="stroke: #A80036; stroke-width: 1.5;" width="89" x="319" y="539.75"/><text fill="#000000" font-family="sans-serif" font-size="14" lengthAdjust="spacingAndGlyphs" textLength="54" x="336.5" y="559.7451">Storage</text><text fill="#000000" font-family="sans-serif" font-size="14" lengthAdjust="spacingAndGlyphs" textLength="75" x="326" y="576.042">Application</text><text fill="#000000" font-family="sans-serif" font-size="14" lengthAdjust="spacingAndGlyphs" textLength="38" x="344.5" y="592.3389">Entity</text><rect fill="#EEEEEE" filter="url(#f1btdza6yf6ztk)" height="3" style="stroke: #EEEEEE; stroke-width: 1.0;" width="514.5" x="3" y="101.457"/><line style="stroke: #000000; stroke-width: 1.0;" x1="3" x2="517.5" y1="101.457" y2="101.457"/><line style="stroke: #000000; stroke-width: 1.0;" x1="3" x2="517.5" y1="104.457" y2="104.457"/><rect fill="#EEEEEE" filter="url(#f1btdza6yf6ztk)" height="23.1328" style="stroke: #000000; stroke-width: 2.0;" width="80" x="220.25" y="90.8906"/><text fill="#000000" font-family="sans-serif" font-size="13" font-weight="bold" lengthAdjust="spacingAndGlyphs" textLength="61" x="226.25" y="106.9575">Request</text><polygon fill="#A80036" points="353.5,141.0234,363.5,145.0234,353.5,149.0234,357.5,145.0234" style="stroke: #A80036; stroke-width: 1.0;"/><line style="stroke: #A80036; stroke-width: 1.0;" x1="88.5" x2="359.5" y1="145.0234" y2="145.0234"/><text fill="#000000" font-family="sans-serif" font-size="13" lengthAdjust="spacingAndGlyphs" textLength="120" x="95.5" y="140.0903">Initiate Association</text><polygon fill="#A80036" points="353.5,170.1563,363.5,174.1563,353.5,178.1563,357.5,174.1563" style="stroke: #A80036; stroke-width: 1.0;"/><line style="stroke: #A80036; stroke-width: 1.0;" x1="88.5" x2="359.5" y1="174.1563" y2="174.1563"/><text fill="#000000" font-family="sans-serif" font-size="13" lengthAdjust="spacingAndGlyphs" textLength="196" x="95.5" y="169.2231">Request Storage Commitment</text><line style="stroke: #A80036; stroke-width: 1.0;" x1="365.5" x2="407.5" y1="203.4219" y2="203.4219"/><line style="stroke: #A80036; stroke-width: 1.0;" x1="407.5" x2="407.5" y1="203.4219" y2="216.4219"/><line style="stroke: #A80036; stroke-width: 1.0;" x1="366.5" x2="407.5" y1="216.4219" y2="216.4219"/><polygon fill="#A80036" points="376.5,212.4219,366.5,216.4219,376.5,220.4219,372.5,216.4219" style="stroke: #A80036; stroke-width: 1.0;"/><text fill="#000000" font-family="sans-serif" font-size="13" lengthAdjust="spacingAndGlyphs" textLength="98" x="372.5" y="198.356">Queue Request</text><polygon fill="#A80036" points="99.5,241.4219,89.5,245.4219,99.5,249.4219,95.5,245.4219" style="stroke: #A80036; stroke-width: 1.0;"/><line style="stroke: #A80036; stroke-width: 1.0; stroke-dasharray: 2.0,2.0;" x1="93.5" x2="364.5" y1="245.4219" y2="245.4219"/><text fill="#000000" font-family="sans-serif" font-size="13" lengthAdjust="spacingAndGlyphs" textLength="172" x="105.5" y="240.4888">Confirm receive of Request</text><polygon fill="#A80036" points="353.5,270.5547,363.5,274.5547,353.5,278.5547,357.5,274.5547" style="stroke: #A80036; stroke-width: 1.0;"/><line style="stroke: #A80036; stroke-width: 1.0;" x1="88.5" x2="359.5" y1="274.5547" y2="274.5547"/><text fill="#000000" font-family="sans-serif" font-size="13" lengthAdjust="spacingAndGlyphs" textLength="127" x="95.5" y="269.6216">Release Association</text><rect fill="#EEEEEE" filter="url(#f1btdza6yf6ztk)" height="3" style="stroke: #EEEEEE; stroke-width: 1.0;" width="514.5" x="3" y="303.2539"/><line style="stroke: #000000; stroke-width: 1.0;" x1="3" x2="517.5" y1="303.2539" y2="303.2539"/><line style="stroke: #000000; stroke-width: 1.0;" x1="3" x2="517.5" y1="306.2539" y2="306.2539"/><rect fill="#EEEEEE" filter="url(#f1btdza6yf6ztk)" height="23.1328" style="stroke: #000000; stroke-width: 2.0;" width="104" x="208.25" y="292.6875"/><text fill="#000000" font-family="sans-serif" font-size="13" font-weight="bold" lengthAdjust="spacingAndGlyphs" textLength="85" x="214.25" y="308.7544">Notification</text><rect fill="none" height="190.9297" style="stroke: #000000; stroke-width: 2.0;" width="494.5" x="13" y="332.8203"/><polygon fill="#EEEEEE" points="13,332.8203,90,332.8203,90,339.8203,80,349.8203,13,349.8203,13,332.8203" style="stroke: #000000; stroke-width: 2.0;"/><text fill="#000000" font-family="sans-serif" font-size="13" font-weight="bold" lengthAdjust="spacingAndGlyphs" textLength="32" x="28" y="345.8872">loop</text><text fill="#000000" font-family="sans-serif" font-size="11" font-weight="bold" lengthAdjust="spacingAndGlyphs" textLength="304" x="105" y="345.0308">[repeat after delay if Remote AE not reachable]</text><line style="stroke: #A80036; stroke-width: 1.0;" x1="365.5" x2="407.5" y1="386.2188" y2="386.2188"/><line style="stroke: #A80036; stroke-width: 1.0;" x1="407.5" x2="407.5" y1="386.2188" y2="399.2188"/><line style="stroke: #A80036; stroke-width: 1.0;" x1="366.5" x2="407.5" y1="399.2188" y2="399.2188"/><polygon fill="#A80036" points="376.5,395.2188,366.5,399.2188,376.5,403.2188,372.5,399.2188" style="stroke: #A80036; stroke-width: 1.0;"/><text fill="#000000" font-family="sans-serif" font-size="13" lengthAdjust="spacingAndGlyphs" textLength="123" x="372.5" y="366.02">Verify Checksum of</text><text fill="#000000" font-family="sans-serif" font-size="13" lengthAdjust="spacingAndGlyphs" textLength="106" x="372.5" y="381.1528">stored Instances</text><polygon fill="#A80036" points="99.5,424.2188,89.5,428.2188,99.5,432.2188,95.5,428.2188" style="stroke: #A80036; stroke-width: 1.0;"/><line style="stroke: #A80036; stroke-width: 1.0;" x1="93.5" x2="364.5" y1="428.2188" y2="428.2188"/><text fill="#000000" font-family="sans-serif" font-size="13" lengthAdjust="spacingAndGlyphs" textLength="120" x="105.5" y="423.2856">Initiate Association</text><polygon fill="#A80036" points="99.5,453.3516,89.5,457.3516,99.5,461.3516,95.5,457.3516" style="stroke: #A80036; stroke-width: 1.0;"/><line style="stroke: #A80036; stroke-width: 1.0;" x1="93.5" x2="364.5" y1="457.3516" y2="457.3516"/><text fill="#000000" font-family="sans-serif" font-size="13" lengthAdjust="spacingAndGlyphs" textLength="253" x="105.5" y="452.4185">Send Storage Commitment Notification</text><polygon fill="#A80036" points="353.5,482.4844,363.5,486.4844,353.5,490.4844,357.5,486.4844" style="stroke: #A80036; stroke-width: 1.0;"/><line style="stroke: #A80036; stroke-width: 1.0; stroke-dasharray: 2.0,2.0;" x1="88.5" x2="359.5" y1="486.4844" y2="486.4844"/><text fill="#000000" font-family="sans-serif" font-size="13" lengthAdjust="spacingAndGlyphs" textLength="192" x="95.5" y="481.5513">Confirm receive of Notification</text><polygon fill="#A80036" points="99.5,511.6172,89.5,515.6172,99.5,519.6172,95.5,515.6172" style="stroke: #A80036; stroke-width: 1.0;"/><line style="stroke: #A80036; stroke-width: 1.0;" x1="93.5" x2="364.5" y1="515.6172" y2="515.6172"/><text fill="#000000" font-family="sans-serif" font-size="13" lengthAdjust="spacingAndGlyphs" textLength="127" x="105.5" y="510.6841">Release Association</text></g></svg>